<?xml version="1.0" ?><svg height="48" viewBox="0 0 48 48" width="48" xmlns="http://www.w3.org/2000/svg"><defs><style>.cls-1{fill:#49aaee;}.cls-2{fill:#3398d6;}.cls-3{fill:#474c54;}</style></defs><title/><g data-name="28-File-Document-exchange" id="_28-File-Document-exchange"><path class="cls-1" d="M43,14V43a4,4,0,0,1-4,4H9s-4,0-4-4V5A4,4,0,0,1,9,1H30v9a4,4,0,0,0,4,4Z"/><path class="cls-2" d="M43,14H34a4,4,0,0,1-4-4V1Z"/><path class="cls-3" d="M43.922,13.615a1,1,0,0,0-.216-.323l-13-13A1,1,0,0,0,30,0H9A5.006,5.006,0,0,0,4,5V43a4.821,4.821,0,0,0,5,5H39a5.006,5.006,0,0,0,5-5V14A.992.992,0,0,0,43.922,13.615ZM39,46H9.006A2.854,2.854,0,0,1,6,43V5A3,3,0,0,1,9,2H29.586l11,11H34a3,3,0,0,1-3-3V7a1,1,0,0,0-2,0v3a5.006,5.006,0,0,0,5,5h8V43A3,3,0,0,1,39,46Z"/><path class="cls-3" d="M33.706,22.292l-4-4a1,1,0,0,0-1.414,1.414L30.586,22H18a4.821,4.821,0,0,0-5,5v2a1,1,0,0,0,2,0V27a2.852,2.852,0,0,1,3-3H30.586l-2.293,2.293a1,1,0,1,0,1.414,1.414l4-4a1,1,0,0,0,0-1.416Z"/><path class="cls-3" d="M33,29a1,1,0,0,0-1,1v2a2.852,2.852,0,0,1-3,3H16.414l2.293-2.293a1,1,0,0,0-1.414-1.414l-4,4a.99.99,0,0,0-.217.326,1,1,0,0,0,0,.764.99.99,0,0,0,.217.326l4,4a1,1,0,0,0,1.414-1.414L16.414,37H29a4.821,4.821,0,0,0,5-5V30A1,1,0,0,0,33,29Z"/></g></svg>