<?xml version="1.0" ?><svg height="48" viewBox="0 0 48 48" width="48" xmlns="http://www.w3.org/2000/svg"><defs><style>.cls-1{fill:#a4b0c0;}.cls-2{fill:#f1f2f2;}.cls-3{fill:#49aaee;}.cls-4{fill:#35dc86;}.cls-5{fill:#2ebc70;}.cls-6{fill:#fed049;}.cls-7{fill:#474c54;}</style></defs><title/><g data-name="12-Computer" id="_12-Computer"><path class="cls-1" d="M34,45v1a1,1,0,0,1-1,1H15a1,1,0,0,1-1-1V45l3-2V37H31v6Z"/><path class="cls-2" d="M47,28v5a4,4,0,0,1-4,4H5a4,4,0,0,1-4-4V28Z"/><path class="cls-1" d="M47,23v5H1V5A4,4,0,0,1,5,1H43a4,4,0,0,1,4,4Z"/><path class="cls-3" d="M42,5H6A1,1,0,0,0,5,6V28H43V6A1,1,0,0,0,42,5Z"/><polygon class="cls-4" points="40 28 6 28 23 11 40 28"/><polygon class="cls-5" points="37 11 30 18 40 28 47 28 47 21 37 11"/><g data-name="&lt;Group&gt;" id="_Group_"><circle class="cls-6" cx="10" cy="10" r="4"/><path class="cls-7" d="M47,24a1,1,0,0,0,1-1V5a5.006,5.006,0,0,0-5-5H5A5.006,5.006,0,0,0,0,5V33a5.006,5.006,0,0,0,5,5H16v4.465l-2.555,1.7A1,1,0,0,0,13,45v1a2,2,0,0,0,2,2H33a2,2,0,0,0,2-2V45a1,1,0,0,0-.445-.832L32,42.465V41a1,1,0,0,0-2,0v2a1,1,0,0,0,.445.832L33,45.535V46H15v-.465l2.555-1.7A1,1,0,0,0,18,43V38H43a5.006,5.006,0,0,0,5-5V28a1,1,0,0,0-1-1H8.414L23,12.414,35.293,24.707a1,1,0,0,0,1.414-1.414L31.414,18,37,12.414l5.293,5.293a1,1,0,0,0,1.414-1.414l-6-6a1,1,0,0,0-1.414,0L30,16.586l-6.293-6.293a1,1,0,0,0-1.414,0l-17,17A1,1,0,0,0,6,29H46v4a3,3,0,0,1-3,3H5a3,3,0,0,1-3-3V5A3,3,0,0,1,5,2H43a3,3,0,0,1,3,3V23A1,1,0,0,0,47,24Z"/><path class="cls-7" d="M5,10a5,5,0,1,0,5-5A5.006,5.006,0,0,0,5,10Zm8,0a3,3,0,1,1-3-3A3,3,0,0,1,13,10Z"/></g></g></svg>